<?xml version="1.0" encoding="UTF-8"?><svg id="Layer_2" xmlns="http://www.w3.org/2000/svg" xmlns:xlink="http://www.w3.org/1999/xlink" viewBox="0 0 126.2488 156.4748"><defs><linearGradient id="Naamloos_verloop_2" x1="0" y1="78.2376" x2="126.2489" y2="78.2376" gradientTransform="translate(0 -.0002)" gradientUnits="userSpaceOnUse"><stop offset="0" stop-color="#53b1db"/><stop offset="1" stop-color="#2ccce2"/></linearGradient></defs><g id="Components"><path id="_29ae843e-5519-4ee6-a168-70019e748d34_1" d="M121.9573,88.4489l-63.1441-50.733c-3.5719-2.8699-8.6489-2.9048-12.261-.0841l-3.9014,3.0484.0144.0109-11.7427,9.173c-.799.6241-1.9224.6163-2.7132-.0187l-9.2592-7.439c-1.0985-.8823-1.0867-2.5575.0231-3.4253l31.8173-24.8536c.7991-.6241,1.9219-.6167,2.7128.0187l56.0233,45.0118c1.0985.8823,1.0859,2.5579-.0226,3.4249l-3.518,2.7476.474.6063,9.341,7.5048,6.9716-5.4466c4.5974-3.5915,4.6422-10.5322.0905-14.1825L58.546,2.2378c-3.6821-2.9526-8.911-2.9869-12.6322-.0823l-3.7212,2.904.0048.003L6.8438,32.6794l-.0048-.0035-4.7837,3.7365-.0139.0187h0c-2.6981,2.1069-2.7263,6.1799-.057,8.3239l4.7319,3.8017.0192-.0148,57.3724,46.0956c1.0977.8817,1.0859,2.5583-.0239,3.4252l-10.4265,8.1441c-.7982.6241-1.9224.6164-2.7132-.0191l-16.1033-12.9373c-3.1746-2.5509-7.6875-2.5823-10.8974-.0753l-4.5865,3.5837,27.2021,21.8557c3.2965,2.648,7.9809,2.6801,11.3135.0775l4.3775-3.4192,21.8562-17.0733c1.1098-.8669,1.1211-2.5426.0234-3.4248l-42.4657-34.1175c-1.0972-.8831-1.0855-2.5583.0244-3.4253l9.5694-7.4747c.7991-.6246,1.9224-.6167,2.7128.0183l55.7716,44.809c1.0985.8817,1.0859,2.5574-.024,3.4253l-56.7987,44.3676c-.7991.6241-1.922.6164-2.7129-.0174l-31.8529-25.5935c-1.099-.8817-1.0873-2.5583.0226-3.4244l3.4301-2.6784-.4949-.6354-9.3131-7.4817-9.24,7.2171c-3.3592,2.6253-3.394,7.6966-.0705,10.3672l42.4191,34.0805c3.7143,2.9857,8.9945,3.0205,12.7497.0871l63.9919-49.9874h0c5.141-4.0164,5.1941-11.7756.1084-15.8621h0Z" style="fill:url(#Naamloos_verloop_2); stroke-width:0px;"/></g></svg>