<?xml version="1.0" encoding="UTF-8"?><svg id="Laag_2" xmlns="http://www.w3.org/2000/svg" xmlns:xlink="http://www.w3.org/1999/xlink" viewBox="0 0 207.82 190.37"><defs><style>.cls-1{fill:#fff;}.cls-2{fill:url(#Naamloos_verloop_7-2);}.cls-3{fill:url(#Naamloos_verloop_7);}</style><linearGradient id="Naamloos_verloop_7" x1="28.03" y1="5.29" x2="288.9" y2="244.77" gradientTransform="translate(.05 -.52)" gradientUnits="userSpaceOnUse"><stop offset="0" stop-color="#a81e32"/><stop offset="1" stop-color="#3d1115"/></linearGradient><linearGradient id="Naamloos_verloop_7-2" x1="-.97" y1="36.88" x2="259.9" y2="276.35" xlink:href="#Naamloos_verloop_7"/></defs><g id="Laag_1-2"><g><g><g><path class="cls-1" d="M5.57,102.17c1.98-.24,3.6-.04,4.87,.62,1.27,.66,2,1.77,2.19,3.36,.14,1.17-.02,2.18-.5,3.03-.48,.85-1.19,1.53-2.13,2.04-.94,.51-2.05,.84-3.32,1l-.84-1.94c1.56-.19,2.98-.15,4.24,.13,1.26,.28,2.3,.78,3.1,1.49,.8,.71,1.27,1.63,1.41,2.75,.13,1.03,.05,1.93-.23,2.69-.28,.76-.71,1.4-1.28,1.91-.57,.52-1.24,.92-2.01,1.22-.77,.3-1.57,.49-2.41,.6l-6.32,.78L0,102.86l5.57-.68Zm1.39,7.71c.74-.09,1.26-.38,1.56-.87,.3-.49,.41-1.02,.34-1.59-.08-.65-.36-1.12-.84-1.39-.48-.27-1.09-.36-1.83-.27l-2.01,.25,.51,4.15,2.27-.28Zm1.08,7.72c.55-.07,1.04-.2,1.47-.4,.43-.2,.75-.48,.97-.83,.22-.35,.3-.77,.24-1.25-.07-.55-.27-.95-.62-1.19-.34-.25-.77-.39-1.27-.45s-1.02-.04-1.56,.02l-2.14,.26,.51,4.13,2.4-.29Z"/><path class="cls-1" d="M22.44,100.1c1.19-.15,2.26-.12,3.23,.06,.97,.19,1.8,.52,2.49,1,.7,.48,1.26,1.09,1.68,1.84,.42,.74,.69,1.6,.81,2.58,.09,.77,.07,1.56-.06,2.36s-.43,1.55-.88,2.25c-.45,.7-1.08,1.3-1.89,1.79-.81,.49-1.85,.82-3.13,.97l-2.68,.33,.74,6.03-3.74,.46-2.33-18.98,5.75-.71Zm1.79,9.26c.57-.07,1.03-.22,1.38-.46,.35-.24,.62-.51,.8-.83,.18-.32,.3-.64,.35-.97,.06-.33,.07-.63,.03-.91-.03-.21-.09-.46-.19-.78-.1-.31-.26-.62-.49-.92-.23-.3-.55-.54-.97-.72-.41-.18-.95-.22-1.6-.14l-2.68,.33,.7,5.72,2.66-.33Zm3.79,1.89l5.59,6.75-4.36,.54-5.68-6.63,4.45-.65Z"/><path class="cls-1" d="M33.74,108.37c-.16-1.31-.06-2.57,.29-3.81,.35-1.23,.92-2.35,1.69-3.36,.77-1.01,1.71-1.85,2.82-2.51,1.11-.66,2.33-1.07,3.67-1.24s2.6-.06,3.83,.31c1.23,.37,2.36,.95,3.37,1.75s1.85,1.74,2.5,2.85c.65,1.11,1.06,2.31,1.22,3.62s.06,2.63-.3,3.86c-.36,1.23-.94,2.35-1.74,3.34-.79,1-1.74,1.82-2.85,2.46-1.11,.64-2.32,1.04-3.65,1.21s-2.63,.07-3.86-.29c-1.23-.36-2.34-.92-3.34-1.7-.99-.78-1.81-1.72-2.45-2.83-.64-1.11-1.05-2.33-1.21-3.67Zm3.87-.47c.1,.84,.35,1.61,.74,2.3,.39,.69,.89,1.29,1.5,1.78,.61,.49,1.29,.85,2.04,1.07,.75,.22,1.55,.28,2.39,.18s1.54-.35,2.2-.74,1.21-.9,1.66-1.53c.45-.62,.77-1.32,.97-2.08,.2-.77,.25-1.57,.15-2.41s-.35-1.64-.75-2.34c-.39-.7-.88-1.3-1.48-1.8-.59-.49-1.26-.85-2-1.08-.74-.22-1.53-.28-2.35-.18s-1.57,.35-2.24,.75c-.67,.4-1.23,.91-1.7,1.53-.46,.62-.8,1.32-1,2.1-.2,.78-.25,1.59-.14,2.45Z"/><path class="cls-1" d="M54.24,100.1c.34-.39,.58-.93,.74-1.61,.16-.68,.14-1.32-.05-1.9l2.74-.52c.16,.47,.19,1.01,.08,1.61-.11,.61-.3,1.17-.58,1.69-.28,.52-.61,.93-.99,1.22l-1.95-.49Z"/><path class="cls-1" d="M71.48,98.74c-.77-.31-1.55-.54-2.33-.71s-1.5-.21-2.15-.13c-.81,.1-1.42,.34-1.85,.72-.42,.38-.6,.9-.52,1.56,.05,.45,.28,.83,.68,1.13,.4,.31,.89,.57,1.48,.77,.59,.21,1.2,.38,1.83,.53,.58,.14,1.15,.32,1.73,.53,.58,.22,1.11,.51,1.59,.88,.48,.37,.89,.85,1.22,1.45,.33,.6,.56,1.35,.67,2.26,.12,.96-.02,1.89-.42,2.77-.4,.89-1.05,1.64-1.95,2.27-.9,.63-2.06,1.02-3.47,1.2-.72,.09-1.47,.11-2.23,.05-.77-.05-1.53-.19-2.29-.4-.76-.21-1.5-.51-2.23-.89l1.29-3.12c.49,.27,1.01,.5,1.56,.69,.55,.18,1.11,.31,1.66,.39,.55,.07,1.05,.08,1.5,.03s.89-.17,1.33-.36c.44-.18,.79-.45,1.05-.8,.26-.35,.36-.79,.29-1.34-.05-.38-.21-.71-.5-.99-.29-.28-.66-.52-1.11-.73-.45-.21-.94-.37-1.46-.5-.61-.15-1.25-.34-1.9-.55-.65-.22-1.28-.5-1.87-.86-.59-.35-1.1-.83-1.51-1.41-.41-.59-.67-1.33-.79-2.25-.14-1.1,0-2.08,.38-2.95,.39-.87,1-1.59,1.84-2.18,.84-.58,1.83-.97,3-1.17,1.53-.19,2.79-.16,3.79,.08,1,.24,1.91,.57,2.72,.97l-1.07,3.04Z"/><path class="cls-1" d="M89.77,91.83c1.98-.24,3.6-.04,4.87,.62,1.27,.66,2,1.78,2.19,3.36,.14,1.17-.02,2.18-.5,3.03-.48,.85-1.19,1.53-2.13,2.04-.94,.51-2.05,.84-3.32,1l-.84-1.94c1.56-.19,2.98-.15,4.24,.13,1.27,.28,2.3,.78,3.1,1.49,.8,.71,1.27,1.63,1.41,2.75,.13,1.03,.05,1.93-.23,2.69-.28,.76-.71,1.4-1.28,1.91-.57,.52-1.24,.92-2.01,1.22-.77,.3-1.57,.49-2.41,.6l-6.32,.78-2.33-18.98,5.57-.68Zm1.39,7.71c.74-.09,1.26-.38,1.56-.87,.3-.49,.41-1.02,.34-1.59-.08-.65-.36-1.12-.84-1.39-.48-.27-1.09-.36-1.83-.27l-2.01,.25,.51,4.15,2.27-.28Zm1.08,7.72c.55-.07,1.04-.2,1.47-.4,.43-.2,.75-.48,.97-.83,.22-.35,.3-.77,.24-1.25-.07-.55-.27-.95-.62-1.19-.34-.25-.77-.39-1.27-.45s-1.02-.04-1.55,.02l-2.14,.26,.51,4.13,2.4-.29Z"/><path class="cls-1" d="M105.7,102.02c.07,.6,.32,1.16,.75,1.66,.43,.51,.96,.89,1.6,1.17,.64,.27,1.3,.36,2.01,.28,.77-.09,1.44-.35,2-.77,.56-.42,.98-.92,1.27-1.52,.28-.59,.39-1.19,.32-1.79l-1.47-11.97,3.69-.45,1.48,12.04c.17,1.39-.02,2.67-.58,3.83-.56,1.16-1.38,2.12-2.47,2.87-1.09,.75-2.36,1.22-3.78,1.39s-2.73,.03-3.97-.44c-1.24-.47-2.26-1.2-3.08-2.19-.82-.99-1.31-2.18-1.49-3.57l-1.48-12.04,3.74-.46,1.47,11.97Z"/><path class="cls-1" d="M126.13,87.37c1.19-.15,2.26-.12,3.23,.06,.97,.19,1.8,.52,2.49,1,.7,.48,1.26,1.09,1.68,1.84,.42,.74,.69,1.6,.81,2.58,.09,.77,.07,1.56-.06,2.36s-.43,1.55-.88,2.25c-.45,.7-1.08,1.3-1.89,1.79-.81,.49-1.85,.82-3.13,.97l-2.68,.33,.74,6.03-3.74,.46-2.33-18.98,5.75-.71Zm1.79,9.26c.57-.07,1.03-.22,1.38-.46s.62-.51,.8-.83c.18-.32,.3-.64,.35-.97,.06-.33,.07-.63,.03-.91-.03-.21-.09-.46-.19-.78-.1-.31-.26-.62-.49-.92-.23-.3-.55-.54-.97-.72-.41-.18-.95-.22-1.6-.14l-2.68,.33,.7,5.72,2.66-.33Zm3.79,1.89l5.59,6.75-4.36,.54-5.68-6.63,4.45-.65Z"/><path class="cls-1" d="M154.92,101.16c-.19,.27-.52,.56-.97,.86-.45,.31-.98,.6-1.58,.89-.6,.28-1.22,.53-1.86,.74s-1.25,.35-1.83,.42c-1.55,.19-2.97,.13-4.26-.17-1.29-.3-2.43-.81-3.41-1.52-.98-.71-1.77-1.59-2.37-2.65-.6-1.06-.98-2.25-1.15-3.58-.21-1.74-.14-3.28,.23-4.62,.37-1.34,.95-2.5,1.75-3.46,.8-.96,1.76-1.72,2.89-2.28s2.34-.92,3.63-1.07c1.22-.15,2.35-.15,3.4-.01,1.05,.14,1.95,.37,2.7,.68l-.78,3.63c-.33-.13-.76-.26-1.3-.36-.54-.11-1.08-.19-1.63-.23-.55-.05-1.03-.04-1.44,0-1.03,.13-1.93,.37-2.69,.72s-1.38,.82-1.86,1.41-.81,1.27-.99,2.07c-.18,.8-.21,1.71-.08,2.72,.11,.89,.36,1.68,.76,2.35,.4,.68,.91,1.23,1.53,1.66s1.33,.73,2.13,.89c.8,.16,1.66,.19,2.59,.07,.53-.07,1.02-.16,1.46-.3,.44-.13,.8-.3,1.09-.51l-.28-2.3-3.27,.4-.44-3.61,7.07-.87,.98,8.02Z"/><path class="cls-1" d="M157.08,83.57l12.95-1.59,.44,3.61-9.21,1.13,.5,4.05,8.15-1,.44,3.61-8.15,1,.5,4.1,9.57-1.17,.44,3.61-13.31,1.63-2.33-18.98Z"/><path class="cls-1" d="M180,80.75c1.19-.15,2.26-.12,3.23,.06,.97,.19,1.8,.52,2.49,1,.7,.48,1.26,1.09,1.68,1.84,.42,.74,.69,1.6,.81,2.58,.09,.77,.07,1.56-.06,2.36s-.43,1.55-.88,2.25c-.45,.7-1.08,1.3-1.89,1.79-.81,.49-1.85,.82-3.13,.97l-2.68,.33,.74,6.03-3.74,.46-2.33-18.98,5.75-.71Zm1.79,9.26c.57-.07,1.03-.22,1.38-.46s.62-.51,.8-.83c.18-.32,.3-.64,.35-.97,.06-.33,.07-.63,.03-.91-.03-.21-.09-.46-.19-.78-.1-.31-.26-.62-.49-.92-.23-.3-.55-.54-.97-.72-.41-.18-.95-.22-1.6-.14l-2.68,.33,.7,5.72,2.66-.33Zm3.79,1.89l5.59,6.75-4.36,.54-5.68-6.63,4.45-.65Z"/><path class="cls-1" d="M202.64,82.63c-.77-.31-1.55-.54-2.33-.71s-1.5-.21-2.15-.13c-.81,.1-1.42,.34-1.85,.72-.42,.38-.6,.9-.52,1.56,.05,.45,.28,.83,.68,1.13,.4,.31,.89,.57,1.48,.77,.59,.21,1.2,.38,1.83,.53,.58,.14,1.15,.32,1.73,.53,.58,.22,1.11,.51,1.59,.88,.48,.37,.89,.85,1.22,1.45,.33,.6,.56,1.35,.67,2.26,.12,.96-.02,1.89-.42,2.77-.4,.89-1.05,1.64-1.95,2.27-.9,.63-2.06,1.02-3.47,1.2-.72,.09-1.47,.11-2.23,.05s-1.53-.19-2.29-.4c-.76-.21-1.5-.51-2.23-.89l1.29-3.12c.49,.27,1.01,.5,1.56,.69,.55,.18,1.11,.31,1.66,.39,.55,.07,1.05,.08,1.5,.03s.89-.17,1.33-.36c.44-.18,.79-.45,1.05-.8,.26-.35,.36-.79,.29-1.34-.05-.38-.21-.71-.5-.99-.29-.28-.66-.52-1.11-.73-.45-.21-.94-.37-1.46-.5-.61-.15-1.25-.34-1.9-.55-.65-.22-1.28-.5-1.87-.86-.59-.35-1.1-.83-1.51-1.41-.41-.59-.67-1.33-.79-2.25-.14-1.1,0-2.08,.38-2.95,.39-.87,1-1.59,1.84-2.18,.84-.58,1.83-.97,3-1.17,1.53-.19,2.79-.16,3.79,.08,1,.24,1.91,.57,2.72,.97l-1.07,3.04Z"/></g><g><path class="cls-1" d="M5.8,126.75c1.1-.14,2-.02,2.69,.36,.69,.37,1.09,1.03,1.21,1.97,.07,.59,0,1.11-.21,1.57-.21,.46-.54,.84-.98,1.14s-.98,.51-1.61,.63l-.31-.75c.74-.07,1.42-.02,2.04,.15,.62,.17,1.13,.45,1.52,.85,.4,.39,.63,.89,.71,1.49,.07,.55,.03,1.03-.12,1.44-.15,.41-.38,.77-.7,1.06-.32,.29-.69,.52-1.1,.69-.42,.17-.86,.28-1.34,.34l-3.27,.4-1.35-10.99,2.83-.35Zm.89,4.77c.61-.07,1.03-.3,1.26-.66,.23-.37,.32-.79,.26-1.27-.07-.59-.3-.99-.69-1.21-.39-.22-.88-.29-1.48-.22l-1.43,.18,.42,3.39,1.66-.2Zm.65,4.81c.42-.05,.78-.16,1.1-.32,.32-.16,.56-.39,.73-.67,.17-.28,.23-.61,.18-.99-.05-.43-.21-.75-.47-.96-.26-.22-.57-.35-.94-.42-.37-.06-.74-.07-1.11-.03l-1.63,.2,.42,3.39,1.72-.21Z"/><path class="cls-1" d="M12.37,125.95l7.14-.88,.17,1.41-5.67,.7,.41,3.34,5.06-.62,.18,1.43-5.06,.62,.42,3.39,5.88-.72,.17,1.41-7.36,.9-1.35-10.99Z"/><path class="cls-1" d="M28.21,125.99c-.4-.15-.83-.26-1.29-.35-.46-.09-.91-.1-1.33-.05-.59,.07-1.04,.27-1.36,.58s-.45,.7-.39,1.16c.04,.34,.19,.62,.45,.83,.26,.21,.58,.38,.96,.51,.38,.13,.78,.24,1.21,.35,.35,.08,.7,.18,1.06,.31s.68,.29,.98,.5c.3,.21,.55,.48,.75,.82,.2,.34,.33,.76,.4,1.28,.07,.59,0,1.14-.24,1.65-.23,.51-.6,.94-1.1,1.28-.5,.34-1.13,.56-1.88,.65-.48,.06-.94,.06-1.4,0-.45-.05-.88-.15-1.28-.28-.4-.14-.75-.28-1.07-.44l.51-1.24c.26,.14,.56,.27,.9,.39,.33,.12,.68,.2,1.03,.25,.36,.05,.7,.05,1.02,.01,.35-.04,.69-.15,1.01-.31,.32-.16,.57-.39,.76-.68,.19-.29,.26-.65,.21-1.09-.04-.36-.18-.66-.41-.89-.23-.23-.51-.41-.85-.55-.34-.14-.71-.25-1.1-.35-.37-.08-.74-.18-1.11-.3-.37-.12-.72-.27-1.04-.47-.33-.19-.6-.44-.83-.75-.23-.31-.37-.7-.43-1.18-.07-.58,0-1.1,.23-1.56,.23-.46,.57-.85,1.02-1.16,.46-.31,1-.51,1.62-.61,.71-.09,1.35-.08,1.91,.03,.56,.11,1.07,.25,1.51,.45l-.42,1.21Z"/><path class="cls-1" d="M30.23,123.75l7.31-.9,.17,1.41-2.95,.36,1.18,9.58-1.47,.18-1.18-9.58-2.89,.35-.17-1.41Z"/><path class="cls-1" d="M47.51,121.63c1.1-.14,2-.02,2.69,.36,.69,.37,1.09,1.03,1.21,1.97,.07,.59,0,1.11-.21,1.57-.21,.46-.54,.84-.98,1.14s-.98,.51-1.61,.63l-.31-.75c.74-.07,1.42-.02,2.04,.15,.62,.17,1.13,.45,1.52,.85,.4,.39,.63,.89,.71,1.49,.07,.55,.03,1.03-.12,1.44-.15,.41-.38,.77-.7,1.06-.32,.29-.69,.52-1.1,.69-.42,.17-.86,.28-1.34,.34l-3.27,.4-1.35-10.99,2.83-.35Zm.89,4.77c.61-.07,1.03-.3,1.26-.66,.23-.37,.32-.79,.26-1.27-.07-.59-.3-.99-.69-1.21-.39-.22-.88-.29-1.48-.22l-1.43,.18,.42,3.39,1.66-.2Zm.65,4.81c.42-.05,.78-.16,1.1-.32,.32-.16,.56-.39,.73-.67,.17-.28,.23-.61,.18-.99-.05-.43-.21-.75-.47-.96-.26-.22-.57-.35-.94-.42-.37-.06-.74-.07-1.11-.03l-1.63,.2,.42,3.39,1.72-.21Z"/><path class="cls-1" d="M56.27,127.76c.06,.5,.23,.93,.52,1.29,.29,.36,.64,.63,1.07,.8,.43,.17,.88,.23,1.37,.17,.52-.06,.96-.23,1.34-.5,.38-.27,.66-.62,.84-1.04s.24-.88,.18-1.37l-.87-7.1,1.46-.18,.88,7.14c.1,.8,0,1.52-.29,2.16-.29,.64-.73,1.16-1.32,1.57-.59,.4-1.27,.65-2.04,.74s-1.47,.02-2.14-.23c-.67-.25-1.22-.65-1.66-1.2-.44-.55-.71-1.23-.8-2.03l-.88-7.14,1.47-.18,.87,7.1Z"/><path class="cls-1" d="M68.11,119.1c.56-.07,1.08-.06,1.57,.03,.49,.09,.93,.26,1.31,.5s.7,.57,.95,.97c.25,.4,.41,.88,.48,1.42,.05,.44,.04,.87-.03,1.3-.08,.43-.24,.83-.48,1.21-.25,.38-.59,.7-1.04,.96-.45,.27-1.02,.44-1.72,.53l-1.63,.2,.5,4.04-1.47,.18-1.35-10.99,2.92-.36Zm.83,5.5c.44-.05,.79-.16,1.06-.33s.48-.36,.61-.59c.14-.23,.23-.46,.27-.7s.05-.47,.02-.7-.09-.45-.2-.67-.25-.43-.45-.62c-.19-.19-.43-.33-.72-.43-.28-.1-.62-.12-1-.08l-1.7,.21,.5,4.1,1.6-.2Zm1.91,.63l3.44,4.27-1.7,.21-3.5-4.21,1.76-.26Z"/><path class="cls-1" d="M84.8,127.25c-.14,.15-.33,.31-.59,.47-.26,.16-.55,.31-.86,.45-.32,.14-.64,.26-.98,.37-.34,.1-.66,.17-.98,.21-.88,.11-1.69,.07-2.44-.12s-1.4-.49-1.96-.92c-.56-.42-1.01-.95-1.36-1.58-.34-.63-.56-1.32-.66-2.08-.11-.93-.07-1.78,.14-2.53,.21-.76,.54-1.42,1-1.98s1.01-1.02,1.66-1.36c.65-.34,1.35-.56,2.1-.65,.65-.08,1.26-.08,1.82,0,.57,.08,1.07,.22,1.52,.41l-.32,1.41c-.23-.09-.5-.16-.81-.23-.31-.07-.63-.12-.95-.15-.32-.03-.62-.02-.88,0-.66,.08-1.24,.25-1.73,.51-.5,.26-.91,.6-1.25,1.02-.33,.42-.57,.9-.71,1.45-.14,.55-.17,1.14-.09,1.79,.07,.59,.24,1.12,.5,1.6,.26,.48,.61,.87,1.03,1.18,.42,.31,.91,.53,1.45,.66,.54,.13,1.13,.15,1.77,.08,.36-.04,.73-.12,1.08-.24,.36-.12,.65-.27,.89-.45l-.26-2.16-2.17,.27-.18-1.43,3.66-.45,.54,4.44Z"/><path class="cls-1" d="M86.38,116.86l7.14-.88,.17,1.41-5.67,.7,.41,3.34,5.06-.62,.18,1.43-5.06,.62,.42,3.39,5.88-.72,.17,1.41-7.36,.9-1.35-10.99Z"/><path class="cls-1" d="M99.21,115.28c.56-.07,1.08-.06,1.57,.03,.49,.09,.93,.26,1.31,.5s.7,.57,.95,.97c.25,.4,.41,.88,.48,1.42,.05,.44,.04,.87-.03,1.3-.08,.43-.24,.83-.48,1.21-.25,.38-.59,.7-1.04,.96-.45,.27-1.02,.44-1.72,.53l-1.63,.2,.5,4.04-1.47,.18-1.35-10.99,2.92-.36Zm.83,5.5c.44-.05,.79-.16,1.06-.33s.48-.36,.61-.59c.14-.23,.23-.46,.27-.7s.05-.47,.02-.7-.09-.45-.2-.67-.25-.43-.45-.62c-.19-.19-.43-.33-.72-.43-.28-.1-.62-.12-1-.08l-1.7,.21,.5,4.1,1.6-.2Zm1.91,.63l3.44,4.27-1.7,.21-3.5-4.21,1.76-.26Z"/><path class="cls-1" d="M112.23,115.68c-.4-.15-.83-.26-1.29-.35-.46-.09-.91-.1-1.33-.05-.59,.07-1.04,.27-1.36,.58s-.45,.7-.39,1.16c.04,.34,.19,.62,.45,.83,.26,.21,.58,.38,.96,.51,.38,.13,.78,.24,1.21,.35,.35,.08,.7,.18,1.06,.31s.68,.29,.98,.5c.3,.21,.55,.48,.75,.82,.2,.34,.33,.76,.4,1.28,.07,.59,0,1.14-.24,1.65-.23,.51-.6,.94-1.1,1.28-.5,.34-1.13,.56-1.88,.65-.48,.06-.94,.06-1.4,0-.45-.05-.88-.15-1.28-.28-.4-.14-.75-.28-1.07-.44l.51-1.24c.26,.14,.56,.27,.9,.39,.33,.12,.68,.2,1.03,.25,.36,.05,.7,.05,1.02,.01,.35-.04,.69-.15,1.01-.31,.32-.16,.57-.39,.76-.68,.19-.29,.26-.65,.21-1.09-.04-.36-.18-.66-.41-.89-.23-.23-.51-.41-.85-.55-.34-.14-.71-.25-1.1-.35-.37-.08-.74-.18-1.11-.3-.37-.12-.72-.27-1.04-.47-.33-.19-.6-.44-.83-.75-.23-.31-.37-.7-.43-1.18-.07-.58,0-1.1,.23-1.56,.23-.46,.57-.85,1.02-1.16,.46-.31,1-.51,1.62-.61,.71-.09,1.35-.08,1.91,.03,.56,.11,1.07,.25,1.51,.45l-.42,1.21Z"/><path class="cls-1" d="M119.95,112.74l1.47-.18,1.35,10.99-1.47,.18-1.35-10.99Z"/><path class="cls-1" d="M135.5,122.34l-9.55-7.58,.44,.05,1.03,8.16-1.47,.18-1.39-11.32h.08s9.45,7.61,9.45,7.61l-.34-.04-1.04-8.23,1.47-.18,1.39,11.34h-.06Z"/><path class="cls-1" d="M148.04,111.28c-.4-.15-.83-.26-1.29-.35-.46-.09-.91-.1-1.33-.05-.59,.07-1.04,.27-1.36,.58s-.45,.7-.39,1.16c.04,.34,.19,.62,.45,.83,.26,.21,.58,.38,.96,.51,.38,.13,.78,.24,1.21,.35,.35,.08,.7,.18,1.06,.31s.68,.29,.98,.5c.3,.21,.55,.48,.75,.82,.2,.34,.33,.76,.4,1.28,.07,.59,0,1.14-.24,1.65-.23,.51-.6,.94-1.1,1.28-.5,.34-1.13,.56-1.88,.65-.48,.06-.94,.06-1.4,0-.45-.05-.88-.15-1.28-.28-.4-.14-.75-.28-1.07-.44l.51-1.24c.26,.14,.56,.27,.9,.39,.33,.12,.68,.2,1.03,.25,.36,.05,.7,.05,1.02,.01,.35-.04,.69-.15,1.01-.31,.32-.16,.57-.39,.76-.68,.19-.29,.26-.65,.21-1.09-.04-.36-.18-.66-.41-.89-.23-.23-.51-.41-.85-.55-.34-.14-.71-.25-1.1-.35-.37-.08-.74-.18-1.11-.3-.37-.12-.72-.27-1.04-.47-.33-.19-.6-.44-.83-.75-.23-.31-.37-.7-.43-1.18-.07-.58,0-1.1,.23-1.56,.23-.46,.57-.85,1.02-1.16,.46-.31,1-.51,1.62-.61,.71-.09,1.35-.08,1.91,.03,.56,.11,1.07,.25,1.51,.45l-.42,1.21Z"/><path class="cls-1" d="M160.28,118.11c-.17,.14-.4,.31-.69,.5s-.65,.36-1.06,.52c-.41,.15-.87,.26-1.37,.32-.84,.09-1.62,.03-2.34-.18-.72-.21-1.35-.54-1.9-.99-.54-.45-.98-.99-1.32-1.62-.34-.63-.55-1.32-.64-2.07-.1-.82-.06-1.59,.12-2.32,.18-.73,.48-1.38,.91-1.95,.43-.57,.96-1.04,1.59-1.41,.63-.37,1.34-.6,2.13-.69,.66-.08,1.27-.07,1.83,.05,.56,.11,1.05,.26,1.46,.45l-.42,1.47c-.33-.18-.72-.33-1.18-.46-.46-.13-.95-.16-1.46-.1s-1.03,.23-1.48,.51c-.45,.27-.83,.62-1.15,1.05-.32,.43-.55,.91-.69,1.44-.15,.53-.18,1.1-.11,1.7s.23,1.13,.48,1.61c.25,.49,.57,.9,.97,1.24,.4,.34,.86,.58,1.38,.73,.52,.15,1.09,.19,1.71,.11,.56-.07,1.04-.22,1.46-.44,.41-.23,.75-.46,1.01-.71l.78,1.23Z"/><path class="cls-1" d="M170.2,106.57l1.35,10.99-1.47,.18-.59-4.82-5.75,.71,.59,4.82-1.47,.18-1.35-10.99,1.47-.18,.58,4.76,5.75-.71-.58-4.76,1.47-.18Z"/><path class="cls-1" d="M173.36,111.76c-.09-.76-.04-1.5,.17-2.21,.21-.71,.53-1.36,.99-1.95,.45-.59,1-1.07,1.64-1.44,.64-.38,1.35-.61,2.13-.71s1.5-.03,2.21,.18c.72,.21,1.37,.54,1.95,1,.59,.46,1.07,1.01,1.44,1.65,.38,.64,.61,1.35,.71,2.12s.04,1.51-.17,2.23c-.21,.71-.54,1.36-1,1.94s-1,1.05-1.65,1.42-1.35,.61-2.12,.7-1.53,.04-2.23-.16c-.71-.2-1.35-.53-1.93-.97-.58-.45-1.06-.99-1.43-1.63-.37-.64-.61-1.36-.7-2.16Zm1.52-.19c.07,.59,.24,1.12,.51,1.6,.27,.48,.62,.88,1.04,1.22,.43,.34,.9,.59,1.42,.74,.52,.16,1.07,.2,1.64,.13s1.1-.25,1.56-.52c.46-.28,.86-.63,1.18-1.06,.32-.43,.56-.9,.71-1.44,.15-.53,.19-1.09,.12-1.67s-.25-1.12-.52-1.6c-.28-.48-.62-.89-1.04-1.24s-.89-.6-1.42-.75-1.08-.2-1.64-.13-1.1,.25-1.58,.53c-.47,.28-.87,.64-1.19,1.07-.32,.43-.55,.91-.69,1.45-.14,.54-.18,1.09-.11,1.66Z"/><path class="cls-1" d="M186.38,110.17c-.09-.76-.04-1.5,.17-2.21,.21-.71,.53-1.36,.99-1.95,.45-.59,1-1.07,1.64-1.44,.64-.38,1.35-.61,2.13-.71s1.5-.03,2.21,.18c.72,.21,1.37,.54,1.95,1,.59,.46,1.07,1.01,1.44,1.65,.38,.64,.61,1.35,.71,2.12s.04,1.51-.17,2.23c-.21,.71-.54,1.36-1,1.94s-1,1.05-1.65,1.42-1.35,.61-2.12,.7-1.53,.04-2.23-.16c-.71-.2-1.35-.53-1.93-.97-.58-.45-1.06-.99-1.43-1.63-.37-.64-.61-1.36-.7-2.16Zm1.52-.19c.07,.59,.24,1.12,.51,1.6,.27,.48,.62,.88,1.04,1.22,.43,.34,.9,.59,1.42,.74,.52,.16,1.07,.2,1.64,.13s1.1-.25,1.56-.52c.46-.28,.86-.63,1.18-1.06,.32-.43,.56-.9,.71-1.44,.15-.53,.19-1.09,.12-1.67s-.25-1.12-.52-1.6c-.28-.48-.62-.89-1.04-1.24s-.89-.6-1.42-.75-1.08-.2-1.64-.13-1.1,.25-1.58,.53c-.47,.28-.87,.64-1.19,1.07-.32,.43-.55,.91-.69,1.45-.14,.54-.18,1.09-.11,1.66Z"/><path class="cls-1" d="M199.42,102.98l1.47-.18,1.18,9.58,5.58-.68,.17,1.41-7.05,.87-1.35-10.99Z"/></g></g><g><path class="cls-3" d="M193.3,63.49C156.67-36.88,9.35-12.05,7.38,94.49c47.24-5.8,141.05-17.31,188.3-23.12-.67-2.67-1.47-5.3-2.38-7.88Zm-51.69-46.93c5.88,2.9,11.47,6.46,16.57,10.6l-12.18,16.04c-5.1-4.21-10.79-7.66-16.89-10.22l12.5-16.42Zm-50.43-8.14c14.42-1.99,29.12-.34,42.74,4.81l-12.87,16.94c-17.83-4.94-36.92-2.34-52.78,7.2l-16.93-12.86c11.73-8.61,25.43-14.13,39.84-16.09ZM36.76,82.71l-20.71,2.55c1.35-11.9,5.15-23.47,11.23-33.97l16.19,12.3c-3.22,6.04-5.47,12.49-6.71,19.12Zm-5.07-38.27c3.81-5.36,8.24-10.27,13.13-14.66l16.43,12.48c-5.18,4.11-9.74,8.95-13.52,14.38l-16.04-12.2Zm13.58,37.23c5.23-22.95,24.28-40.84,47.13-44.87,0-.01,.03-.01,.04-.01,.01-.01,.02-.01,.03,0,25.3-4.97,52.26,8.8,63.36,31.3l-110.56,13.58Zm119.06-14.62c-3.06-6.69-7.23-12.87-12.37-18.27l12.3-16.19c9.24,9.04,16.31,19.96,20.78,31.92l-20.71,2.54Z"/><path class="cls-2" d="M185.76,123.45l-22.91,2.81h0c-34.93,4.29-107.97,13.27-142.23,17.47,41.2,71.75,151.81,57.67,174.15-21.38l-9.01,1.1Zm-150.67,26.68l24.95-3.07c9.59,7.95,21.35,13.24,34.03,14.94l2.79,20.5c-24.59-1.73-46.8-13.95-61.77-32.37Zm87.39,30.39c-5.7,1.3-11.56,2.02-17.4,2.17l-2.75-20.08c6.57,.04,13.16-.84,19.46-2.67l2.75,20.1c-.69,.16-1.37,.33-2.06,.48Zm-17.52-26.08c-11.63,.42-23.24-2.74-33.12-8.83,.02,.02,73.63-9.05,73.67-9.04-10.71,10.94-24.98,17.37-40.55,17.87Zm27.47,23.2h0s-.02,.01-.02,.01t.02-.01l-2.82-20.48c11.2-4.8,20.7-12.5,27.72-22.04h0s24.93-3.07,24.93-3.07c-9.71,20.77-27.38,37.6-49.83,45.59Z"/></g></g></g></svg>